<svg version="1.1" xmlns="http://www.w3.org/2000/svg" viewBox="-343.0400001525879 -3635.7122253417965 3505.152197265625 4229.632257080078"><desc>Created with Snap</desc><defs></defs><g><rect x="-343.0400001525879" y="-3635.7122253417965" width="3505.152197265625" height="4229.632257080078" fill="#c4d7f2" style=""></rect><g transform="matrix(25.4747,0,0,25.4747,135.8008,-3455.8858)"><g><path d="M78.4,66.5c-5.5,4.8-9.9,15.2-9.9,15.2s-6.9-11.4-12.9-15.3c-9.5-6.1-13.6-6.2-13.6-6.2V65c0,0,7.8,1.2,11.7,4.6   c8.2,7.1,14.8,18.5,14.8,18.5S74.4,75,80.1,70.5C88.1,64.3,95,65,95,65v-4.8C95,60.1,85.1,60.7,78.4,66.5z" fill="#292929" style=""></path><path d="M42,80c-6.4-3.6-17.8-4.3-17.8-4.3s8.7-10.1,10.5-17C37.5,47.9,36.2,44,36.2,44l-4.6,1.6c0,0,1.3,7.7-0.6,12.4   c-4.1,9.9-13,19.8-13,19.8s14.6,1.3,20.7,5.1c8.6,5.4,10.2,12,10.2,12l4.6-1.6C53.5,93.4,49.7,84.4,42,80z" fill="#292929" style=""></path><path d="M35.3,36.8c11.3-0.9,14.6-3.4,14.6-3.4l-3-3.8c0,0-6.9,3.7-12.1,3.4c-10.9-0.6-23.3-5.6-23.3-5.6s3.5,14,1.8,20.9   C10.9,58.2,5,61.8,5,61.8l3,3.8c0,0,7.5-6.5,9.1-15.1c1.3-7.1-1.7-18-1.7-18S28,37.4,35.3,36.8z" fill="#292929" style=""></path><path d="M37.4,17.8c7.3-1.1,16.7-7.4,16.7-7.4s-0.6,13.2,2.4,19.8c4.6,10.2,8,12.5,8,12.5l2.7-4c0,0-5.9-5.2-7.3-10.2   C56.9,18.2,57.7,5,57.7,5s-12.3,7.8-19.5,8.5c-10.2,1-15.6-3.3-15.6-3.3l-2.7,4.1C19.9,14.2,28.6,19.1,37.4,17.8z" fill="#292929" style=""></path><path d="M65,60.5c0,0,3.1-7.2,7.4-10.1c9-6.1,21.9-9.7,21.9-9.7s-11.5-8.9-14.5-15.4c-4.2-9.1-1.9-15.6-1.9-15.6l-4.8-1.2   c0,0-1.9,9.6,2.2,17.4c3.4,6.4,12.5,13.2,12.5,13.2S75,42.9,69.6,47.8c-8.3,7.6-9.4,11.5-9.4,11.5L65,60.5z" fill="#292929" style=""></path></g><desc>Created with Snap</desc><defs></defs></g><g><g transform="matrix(1.024,0,0,-1.024,0,0)"><path d="M517 -31Q479 -31 461 -9Q443 14 443 45Q443 69 450 92Q457 116 464 139Q472 162 472 181Q472 199 464 206Q457 213 447 213Q423 213 393 176Q363 140 317 72Q301 48 288 22Q275 -4 264 -23Q256 -23 242 -20Q228 -17 217 -12Q207 -7 207 1Q207 10 217 36Q227 62 240 97Q253 132 262 166Q272 201 272 225Q272 240 267 248Q262 257 250 257Q229 257 199 231Q169 206 136 165Q103 124 74 73Q46 23 28 -27Q17 -27 2 -23Q-13 -19 -24 -13Q-35 -7 -35 -2Q-35 1 -27 29Q-19 57 -8 98Q4 139 14 182Q25 225 31 258Q35 267 52 275Q69 283 83 283Q97 283 105 275Q114 267 114 253Q114 242 109 218Q104 195 96 167Q117 196 141 225Q165 255 191 279Q218 303 244 317Q271 332 297 332Q332 332 344 307Q357 282 357 251Q357 234 353 216Q350 199 345 182Q341 166 335 150Q355 182 378 209Q402 237 429 253Q456 270 487 270Q524 270 538 248Q552 226 552 199Q552 173 543 143Q535 114 526 87Q517 61 517 42Q517 31 522 22Q528 13 544 13Q571 13 596 38Q621 63 642 99Q663 136 678 169L694 151Q678 109 652 67Q627 25 593 -3Q559 -31 517 -31ZM965 -38Q935 -38 913 -19Q891 1 878 31Q865 61 858 92Q852 123 852 146Q865 148 886 154Q907 160 929 170Q951 181 966 197Q981 214 981 237Q981 256 968 267Q955 279 935 279Q906 279 880 259Q854 240 832 208Q811 177 794 140Q777 104 764 70Q751 37 742 13Q733 -13 722 -22Q712 -31 695 -31Q685 -31 676 -24Q667 -16 662 1Q658 19 658 50Q658 108 675 179Q692 251 720 326Q749 401 783 470Q817 539 851 594Q886 649 916 681Q946 714 965 714Q981 714 991 694Q1002 674 1002 644Q1002 610 987 568Q972 526 944 483Q917 441 879 403Q842 365 796 338Q767 267 751 199Q736 132 733 82Q750 122 773 167Q796 212 824 251Q853 291 886 315Q919 340 956 340Q995 340 1023 313Q1052 286 1052 245Q1052 215 1036 192Q1020 170 996 156Q973 142 949 135Q925 128 909 128Q911 116 916 96Q922 76 931 55Q940 35 954 21Q968 7 987 7Q1014 7 1040 29Q1066 52 1091 89Q1116 127 1136 173L1149 158Q1133 109 1103 63Q1074 18 1038 -10Q1002 -38 965 -38ZM821 396Q855 425 886 464Q918 503 938 544Q959 586 960 619Q960 622 959 623Q959 624 959 624Q949 622 926 590Q904 558 876 507Q848 457 821 396ZM1054 -280Q1046 -280 1037 -274Q1029 -268 1023 -261Q1017 -254 1017 -251Q1038 -186 1054 -138Q1070 -89 1082 -44Q1095 2 1106 54Q1117 107 1128 178Q1139 249 1151 352Q1153 363 1156 368Q1159 373 1174 373Q1203 373 1216 357Q1229 341 1229 322Q1229 311 1224 282Q1220 254 1212 215Q1230 245 1255 273Q1280 302 1311 321Q1342 340 1378 340Q1426 340 1456 307Q1487 275 1487 222Q1487 183 1469 139Q1452 96 1420 57Q1389 19 1344 -6Q1300 -30 1247 -30Q1217 -30 1199 -23Q1181 -15 1181 -7Q1181 -1 1188 0Q1196 2 1205 2Q1250 2 1287 21Q1325 41 1353 72Q1382 103 1397 139Q1413 175 1413 211Q1413 241 1399 263Q1386 286 1357 286Q1331 286 1305 269Q1280 253 1258 228Q1236 204 1219 177Q1202 150 1193 129Q1174 60 1157 -7Q1141 -73 1126 -130Q1112 -186 1097 -224Q1083 -262 1069 -274Q1062 -280 1054 -280ZM1571 -47Q1539 -47 1515 -26Q1492 -4 1492 39Q1492 75 1508 116Q1524 157 1552 197Q1580 237 1616 270Q1652 303 1692 323Q1733 343 1773 343Q1815 343 1843 321Q1872 300 1872 265Q1872 238 1855 227Q1838 216 1813 220Q1815 228 1816 237Q1818 247 1818 256Q1818 277 1809 293Q1800 309 1774 309Q1746 309 1717 290Q1688 271 1661 240Q1634 209 1613 172Q1592 135 1580 99Q1568 63 1568 35Q1568 1 1593 1Q1616 1 1643 23Q1671 45 1699 79Q1728 113 1754 148Q1780 184 1799 211Q1803 216 1806 216Q1811 215 1822 211Q1833 208 1842 202Q1851 196 1851 186Q1851 176 1842 160Q1833 145 1822 126Q1811 107 1802 88Q1793 69 1793 51Q1793 38 1800 25Q1808 13 1825 13Q1850 13 1893 49Q1937 86 1982 169L1998 153Q1975 99 1941 58Q1908 17 1871 -7Q1834 -30 1797 -30Q1757 -30 1738 -6Q1719 19 1717 48Q1717 51 1717 54Q1718 58 1718 61Q1677 10 1643 -19Q1609 -47 1571 -47ZM2072 -51Q2023 -51 1993 -31Q1964 -10 1951 21Q1939 52 1939 84Q1939 113 1947 129Q1955 145 1967 153Q1979 161 1989 165Q2000 169 2004 173Q2031 202 2057 237Q2083 272 2102 313L2102 324Q2102 363 2115 379Q2128 395 2145 395Q2156 395 2161 389Q2166 384 2166 377Q2166 372 2163 363Q2161 354 2161 339Q2161 308 2175 269Q2189 231 2203 188Q2217 145 2217 100Q2217 87 2216 76Q2215 66 2212 56Q2245 63 2275 89Q2305 116 2333 169L2344 160Q2325 103 2288 70Q2252 38 2205 31Q2189 -11 2153 -31Q2117 -51 2072 -51ZM2068 -10Q2085 -10 2103 -1Q2121 9 2132 32Q2090 41 2057 64Q2025 88 2007 113Q1991 110 1991 83Q1991 49 2010 19Q2030 -10 2068 -10ZM2139 58Q2141 66 2141 76Q2142 86 2142 94Q2141 140 2130 184Q2119 229 2109 274Q2089 240 2064 204Q2040 169 2019 147Q2034 118 2065 93Q2097 68 2139 58ZM2361 -47Q2329 -47 2305 -26Q2282 -4 2282 39Q2282 75 2298 116Q2314 157 2342 197Q2370 237 2406 270Q2442 303 2482 323Q2523 343 2563 343Q2605 343 2633 321Q2662 300 2662 265Q2662 238 2645 227Q2628 216 2603 220Q2605 228 2606 237Q2608 247 2608 256Q2608 277 2599 293Q2590 309 2564 309Q2536 309 2507 290Q2478 271 2451 240Q2424 209 2403 172Q2382 135 2370 99Q2358 63 2358 35Q2358 1 2383 1Q2406 1 2433 23Q2461 45 2489 79Q2518 113 2544 148Q2570 184 2589 211Q2593 216 2596 216Q2601 215 2612 211Q2623 208 2632 202Q2641 196 2641 186Q2641 176 2632 160Q2623 145 2612 126Q2601 107 2592 88Q2583 69 2583 51Q2583 38 2590 25Q2598 13 2615 13Q2640 13 2683 49Q2727 86 2772 169L2788 153Q2765 99 2731 58Q2698 17 2661 -7Q2624 -30 2587 -30Q2547 -30 2528 -6Q2509 19 2507 48Q2507 51 2507 54Q2508 58 2508 61Q2467 10 2433 -19Q2399 -47 2361 -47Z" fill="#292929" style=""></path></g></g></g></svg>